<svg version="1.2" xmlns="http://www.w3.org/2000/svg" viewBox="0 0 512 128" width="512" height="128"><style>.a{fill:#fff}</style><path class="a" d="m100.6 62.1v-0.5c7.3-1.5 10.2-5.8 10.2-12.3 0-12.2-10.4-13-23.1-13h-22.6v54.7h18.6c11.2 0 20.5-0.6 23.5-2.5 1.7-1.1 5.5-6.4 5.5-13.3 0-6-2.6-12-12.1-13.1zm-7.6-14.2c1.1 1.1 1.4 3 1.4 4.3 0 2.7-1.2 5.1-2.3 5.6-1.3 0.6-6.2 0.5-8.7 0.5h-1v-11.7c1.4-0.1 2.8-0.1 4.2-0.1 3.3 0 5 0.1 6.4 1.4zm1.6 32.1c-0.8 0.6-6.5 0.9-12.2 0.8v-13.9c1.6-0.1 3-0.1 4-0.1 5.1 0 6.7 0.4 7.8 1.4 1.2 1.1 1.9 3.7 1.9 6.4 0 2.1-0.6 4.6-1.5 5.4zm64.4 11l-0.3-11.3 0.1-14.1c0.1-10.7-1.3-19.7-17.5-19.7-6.3 0-14.4 1.1-20.7 2.5 0.2 3 0.6 7.3 1.2 11.1 4.6-0.5 8.7-0.9 12.4-1 2.8-0.2 6.9-0.4 7.6 0.1 0.6 0.4 0.6 4.5 0.6 6.8-6.6 0.1-12.3 0.4-16.6 1.7-5.6 1.6-8.8 6-8.8 11.3 0 9 6.4 13.8 14.6 13.8 5.1 0 9.3-2.4 12.2-7.2l1.6 6zm-21.9-9.6c-2.7 0-4.3-0.9-4.3-4 0-1.1 0.3-2.6 0.9-3.3 0.6-0.6 4.6-0.8 7.9-0.8h0.8v7.1c-1.9 0.7-3.8 1-5.3 1zm49.4-25.2h10.2v-9.4h-10.2v-11.2l-12 0.7-4.3 10.5-7.2 0.7v8.7h7.2v23.7c0 8.3 5.2 12 13.8 12 4.5 0 9.7-1 12-1.9 0-2.5-0.2-7.1-0.8-10.6-3.2 0.1-7.2 0.2-8-0.6-0.8-0.8-0.7-3.8-0.7-5.9zm50.8 23.2c-14.5 1-20.4 0.8-20.4-10.1 0-3.7 0.8-10.3 2-10.7 1.1-0.5 4.6-0.7 8.5-0.6 3.3 0 6.8 0.2 9.3 0.4 0.5-2.4 1.4-9.1 1.6-11.4-4.5-0.7-9-1.1-13.4-1.1-8.3 0-17.4 2.3-20.1 5.3-2.1 2.3-4.8 10.5-4.8 18.6 0 15.5 7.2 22.4 21.4 22.4 5 0 11-0.5 17.4-2.6zm48.6-29.9c-2.1-2.5-6.7-3.7-11-3.7-6.3 0-11.3 2.5-15.7 7.4l-0.1-0.1c0.4-1.9 0.5-5.8 0.5-9.3v-11.2l-16.4 0.7v57.6h16.4v-30.4c1.8-0.7 3.8-1.2 5.6-1.3 2.1-0.2 5.1 0 5.6 0.7 0.5 0.8 0.4 5.8 0.4 7.9v23.1h16.5v-23.2c0-11.9-0.6-16.8-1.8-18.2zm41 14.7h0.3l4.6 26.7h20.8l9.8-44.2h-16.9l-4 32.8h-0.4l-5.2-32.8h-17.7l-4.9 32.9h-0.3l-4.3-32.9h-16.8l9.8 44.2h20.7zm48.6-23c4.3 0 7.9-3.3 7.9-7.4 0-4.2-3.6-7.5-7.9-7.5-4.4 0-8 3.3-8 7.5 0 4.1 3.6 7.4 8 7.4zm-8.3 49.7h16.4v-44.2h-16.4zm60.3-15c0-12.3-16.9-12.8-19.8-15.1-1.4-1.2-0.7-3.4-0.2-3.6 1.2-0.5 6.8-0.5 16.5 0.8 0.4-1.5 1.3-8.8 1.3-11-4-0.5-9.9-1.1-16-1.1-5.2 0-12.3 1.4-13.8 2.4-2 1.3-4.2 7.3-4.2 11.2 0 12.5 11.2 14.5 17.4 16.3 3.6 1.1 2.2 4 2 4.1-1.4 0.6-11.3 0.1-18-1-0.7 2.5-1.9 8.5-2.1 11.1 6 1.3 11.4 2 16.1 2 12.6 0 20.8-4.2 20.8-16.1zm32.3 3.5c-7.7 0-11.6-0.6-11.7-7h13.6c1.8 0 7.9-0.1 12.8-0.4 0-16-2-26.1-20-26.1-7 0-15.7 2.3-18.3 5.2-2.5 2.7-4.9 10.7-4.9 18.6 0 15.3 8.4 22.4 22.8 22.4 5.3 0 12.9-0.5 19.2-3.5l-1.4-9.9c-5.8 0.4-9.2 0.7-12.1 0.7zm-10.8-22.1c1.4-0.8 3.2-1.1 5.1-1 3.8 0.1 5.2 2.6 5.2 8.4-2 0.1-4.4 0.1-6.5 0.1h-5c0.1-3.2 0.5-7 1.2-7.5z"/><path class="a" d="m20.4 46.2h39.6v-10h-39.6zm0 15h39.6v-10h-39.6z"/><path class="a" d="m20.4 76.2h39.6v-10h-39.6zm0 15h39.6v-10h-39.6z"/></svg>