<svg version="1.2" xmlns="http://www.w3.org/2000/svg" viewBox="0 0 128 128" width="128" height="128"><style>.a{fill:#3d5b81}.b{fill:#fff}</style><path class="a" d="m128 0v128h-128v-128z"/><path class="b" d="m100.6 62.1v-0.5c7.3-1.5 10.2-5.8 10.2-12.3 0-12.2-10.4-13-23.1-13h-22.6v54.7h18.6c11.2 0 20.5-0.6 23.5-2.5 1.7-1.1 5.5-6.4 5.5-13.3 0-6-2.6-12-12.1-13.1zm-7.6-14.2c1.1 1.1 1.4 3 1.4 4.3 0 2.7-1.2 5.1-2.3 5.6-1.3 0.6-6.2 0.5-8.7 0.5h-1v-11.7c1.4-0.1 2.8-0.1 4.2-0.1 3.3 0 5 0.1 6.4 1.4zm1.6 32.1c-0.8 0.6-6.5 0.9-12.2 0.8v-13.9c1.6-0.1 3-0.1 4-0.1 5.1 0 6.7 0.4 7.8 1.4 1.2 1.1 1.9 3.7 1.9 6.4 0 2.1-0.6 4.6-1.5 5.4z"/><path class="b" d="m20.4 46.2h39.6v-10h-39.6zm0 15h39.6v-10h-39.6z"/><path class="b" d="m20.4 76.2h39.6v-10h-39.6zm0 15h39.6v-10h-39.6z"/></svg>